<svg xmlns="http://www.w3.org/2000/svg" x="0px" y="0px" width="100" height="100" viewBox="0,0,256,256">
<defs><linearGradient x1="15.25" y1="32.704" x2="15.25" y2="48.615" gradientUnits="userSpaceOnUse" id="color-1_Fycm8TUhWmFU_gr1"><stop offset="0" stop-color="#8ab4ff"></stop><stop offset="0.699" stop-color="#e492ff"></stop></linearGradient><linearGradient x1="15.25" y1="30.671" x2="15.25" y2="43.89" gradientUnits="userSpaceOnUse" id="color-2_Fycm8TUhWmFU_gr2"><stop offset="0" stop-color="#8ab4ff"></stop><stop offset="0.699" stop-color="#e492ff"></stop></linearGradient><linearGradient x1="31.87" y1="10.7" x2="31.87" y2="35.152" gradientUnits="userSpaceOnUse" id="color-3_Fycm8TUhWmFU_gr3"><stop offset="0" stop-color="#8ab4ff"></stop><stop offset="1" stop-color="#e492ff"></stop></linearGradient><linearGradient x1="32" y1="8.058" x2="32" y2="57.784" gradientUnits="userSpaceOnUse" id="color-4_Fycm8TUhWmFU_gr4"><stop offset="0" stop-color="#1a6dff"></stop><stop offset="1" stop-color="#c822ff"></stop></linearGradient></defs><g fill="#eaedef" fill-rule="nonzero" stroke="none" stroke-width="1" stroke-linecap="butt" stroke-linejoin="miter" stroke-miterlimit="10" stroke-dasharray="" stroke-dashoffset="0" font-family="none" font-weight="none" font-size="none" text-anchor="none" style="mix-blend-mode: normal"><path d="M0,256v-256h256v256z" id="bgRectangle"></path></g><g fill="none" fill-rule="nonzero" stroke="none" stroke-width="1" stroke-linecap="butt" stroke-linejoin="miter" stroke-miterlimit="10" stroke-dasharray="" stroke-dashoffset="0" font-family="none" font-weight="none" font-size="none" text-anchor="none" style="mix-blend-mode: normal"><g transform="scale(4,4)"><path d="M19.09,39.37c0,0.01 0.01,0.01 0.01,0.02l-7.7,4.5z" fill="url(#color-1_Fycm8TUhWmFU_gr1)"></path><path d="M19.09,39.37c0,0.01 0.01,0.01 0.01,0.02l-7.7,4.5z" fill="url(#color-2_Fycm8TUhWmFU_gr2)"></path><path d="M32,8.21l-20.6,11.9v23.78l7.69,-4.52c-1.18,-2.17 -1.85,-4.65 -1.85,-7.3c0,-2.88 0.8,-5.56 2.18,-7.87c2.68,-4.46 7.57,-7.46 13.15,-7.46c5.27,0 10.11,2.67 12.94,7.12l-0.39,0.24l-6.57,3.87c-1.35,-1.99 -3.57,-3.16 -5.98,-3.16c-2.62,0 -4.91,1.39 -6.19,3.47c-0.68,1.11 -1.07,2.4 -1.07,3.79c0,1.16 0.27,2.25 0.75,3.22l6.13,-3.6h0.01l0.04,0.02l20.1,-11.75z" fill="url(#color-3_Fycm8TUhWmFU_gr3)"></path><path d="M32.24,31.71l-6.17,3.6c1.19,2.38 3.66,4.02 6.5,4.02c2.382,0 4.553,-1.156 5.911,-3.063l7.076,3.931c-2.797,4.468 -7.66,7.202 -12.987,7.202c-5.8,0 -10.87,-3.24 -13.47,-8.01l-7.7,4.5l20.6,11.9l20.6,-11.9v-0.22v-23.56l-0.26,-0.15zM51,31h-2v2h2v2h-2v2h-2v-2h-2v2h-2v-2h-2v-2h2v-2h-2v-2h2v-2h2v2h2v-2h2v2h2zM45,31h2v2h-2zM55.1,16.93l-21.6,-12.47c-0.93,-0.53 -2.07,-0.53 -3,0l-21.6,12.47c-0.92,0.54 -1.5,1.53 -1.5,2.6v24.94c0,1.07 0.58,2.06 1.5,2.6l21.6,12.47c0.93,0.53 2.07,0.53 3,0l21.6,-12.47c0.92,-0.54 1.5,-1.53 1.5,-2.6v-24.94c0,-1.07 -0.58,-2.06 -1.5,-2.6zM54.6,44.47c0,0.36 -0.19,0.69 -0.5,0.87l-21.6,12.47c-0.31,0.17 -0.69,0.17 -1,0l-21.6,-12.47c-0.31,-0.18 -0.5,-0.51 -0.5,-0.87v-24.94c0,-0.36 0.19,-0.69 0.5,-0.87l21.6,-12.47c0.31,-0.17 0.69,-0.17 1,0l21.6,12.47c0.31,0.18 0.5,0.51 0.5,0.87z" fill="url(#color-4_Fycm8TUhWmFU_gr4)"></path></g></g>
</svg>